<?xml version="1.0" encoding="UTF-8" standalone="no"?>
<!-- Created with Inkscape (http://www.inkscape.org/) -->

<svg
   width="17.19792mm"
   height="18.776825mm"
   viewBox="0 0 17.19792 18.776825"
   version="1.1"
   id="svg888"
   inkscape:version="1.2.1 (9c6d41e410, 2022-07-14)"
   sodipodi:docname="icon-1.svg"
   xmlns:inkscape="http://www.inkscape.org/namespaces/inkscape"
   xmlns:sodipodi="http://sodipodi.sourceforge.net/DTD/sodipodi-0.dtd"
   xmlns="http://www.w3.org/2000/svg"
   xmlns:svg="http://www.w3.org/2000/svg">
  <sodipodi:namedview
     id="namedview890"
     pagecolor="#ffffff"
     bordercolor="#666666"
     borderopacity="1.0"
     inkscape:showpageshadow="2"
     inkscape:pageopacity="0.0"
     inkscape:pagecheckerboard="0"
     inkscape:deskcolor="#d1d1d1"
     inkscape:document-units="mm"
     showgrid="false"
     inkscape:zoom="0.70733726"
     inkscape:cx="-69.273885"
     inkscape:cy="48.067594"
     inkscape:window-width="1920"
     inkscape:window-height="1030"
     inkscape:window-x="0"
     inkscape:window-y="0"
     inkscape:window-maximized="1"
     inkscape:current-layer="layer1" />
  <defs
     id="defs885" />
  <g
     inkscape:label="Layer 1"
     inkscape:groupmode="layer"
     id="layer1"
     transform="translate(-123.4426,-135.74503)">
    <path
       d="m 136.177,146.95742 c -0.0355,0.0381 -0.0669,0.0799 -0.0939,0.12462 -0.0309,0.0397 -0.0548,0.0844 -0.0704,0.13229 -0.0238,0.0466 -0.0397,0.0966 -0.0468,0.14817 -0.0317,0.14922 -0.0153,0.30453 0.0468,0.44397 0.0352,0.0966 0.091,0.18441 0.16404,0.25717 0.073,0.0728 0.16114,0.12859 0.25824,0.16352 0.0926,0.0437 0.19447,0.0651 0.29686,0.0624 0.1016,0.001 0.20267,-0.0175 0.29713,-0.0548 0.0934,-0.045 0.18018,-0.10266 0.25797,-0.17119 0.0725,-0.0728 0.12964,-0.15927 0.1688,-0.254 0.0389,-0.095 0.0585,-0.19658 0.0579,-0.29924 0.003,-0.10213 -0.0188,-0.20346 -0.0627,-0.29607 -0.0394,-0.0944 -0.095,-0.18124 -0.16404,-0.25691 -0.073,-0.0722 -0.15955,-0.12938 -0.2548,-0.16827 -0.0952,-0.0386 -0.19738,-0.0585 -0.3003,-0.0577 -0.10213,0.001 -0.20294,0.0222 -0.29686,0.0622 -0.096,0.037 -0.18362,0.0929 -0.25797,0.16378 z m -3.22077,3.24062 c -0.031,0.04 -0.0548,0.0847 -0.0704,0.13255 -0.0294,0.0455 -0.0505,0.0955 -0.0624,0.14791 -0.0236,0.10001 -0.0236,0.20399 0,0.304 l 0.0468,0.14023 0.0704,0.14023 0.0937,0.11668 c 0.15372,0.14605 0.35824,0.22728 0.5707,0.22596 0.10293,7.9e-4 0.20479,-0.019 0.30004,-0.0577 0.0952,-0.0389 0.18204,-0.096 0.25506,-0.16828 0.0691,-0.0757 0.12462,-0.16245 0.16404,-0.25691 0.0487,-0.118 0.0675,-0.24633 0.0548,-0.37306 -0.0124,-0.127 -0.0564,-0.24897 -0.12726,-0.35507 -0.0712,-0.10636 -0.16722,-0.19341 -0.27993,-0.254 -0.11272,-0.0603 -0.23866,-0.0923 -0.36672,-0.0931 -0.2069,0.003 -0.40507,0.0836 -0.55509,0.22595 z m 3.22077,-0.12462 c -0.0712,0.0741 -0.127,0.16166 -0.16431,0.25717 -0.0656,0.14103 -0.0873,0.29845 -0.0624,0.45191 l 0.0468,0.14023 c 0.0172,0.0495 0.0408,0.0968 0.0704,0.14023 0.0288,0.0408 0.0601,0.0799 0.0937,0.11668 0.0743,0.0712 0.16219,0.12674 0.25797,0.16378 0.0937,0.0413 0.195,0.0624 0.29713,0.0624 0.10239,0 0.20346,-0.0212 0.29713,-0.0624 0.0947,-0.0394 0.18203,-0.0947 0.25797,-0.16378 0.0751,-0.0714 0.13546,-0.15716 0.177,-0.25215 0.0418,-0.095 0.0638,-0.19711 0.0653,-0.30083 0.003,-0.10213 -0.0188,-0.20373 -0.0627,-0.29607 -0.0394,-0.0944 -0.095,-0.18124 -0.16404,-0.25717 -0.0759,-0.0688 -0.16325,-0.12409 -0.25797,-0.16351 -0.0937,-0.0413 -0.19474,-0.0624 -0.29713,-0.0624 -0.10213,0 -0.20346,0.0212 -0.29686,0.0624 -0.096,0.037 -0.18362,0.0926 -0.25797,0.16351 z m -3.29115,-2.26695 c 0.0373,0.0955 0.0929,0.18309 0.16404,0.25717 0.15002,0.14235 0.34819,0.22305 0.55509,0.22596 0.12806,-8e-4 0.254,-0.0328 0.36672,-0.0931 0.11271,-0.0606 0.20875,-0.14764 0.27993,-0.254 0.0709,-0.1061 0.11483,-0.22808 0.12726,-0.35481 0.0127,-0.127 -0.006,-0.25532 -0.0548,-0.37333 -0.0394,-0.0944 -0.095,-0.18124 -0.16404,-0.25691 -0.073,-0.0722 -0.15981,-0.12938 -0.25506,-0.16827 -0.0953,-0.0386 -0.19711,-0.0585 -0.30004,-0.0577 -0.2069,0.003 -0.40507,0.0836 -0.55509,0.22595 -0.10848,0.10954 -0.18177,0.24845 -0.21114,0.39979 -0.0291,0.15107 -0.0127,0.30744 0.0471,0.44926 z m 3.29115,-3.96531 c -0.0691,0.0757 -0.12462,0.16272 -0.16431,0.25691 -0.0598,0.14208 -0.0762,0.29845 -0.0471,0.44953 0.0294,0.15107 0.10292,0.29024 0.2114,0.39978 0.0744,0.0709 0.16192,0.12647 0.25797,0.16351 0.0934,0.0413 0.19473,0.0627 0.29686,0.0627 0.10239,0 0.20346,-0.0214 0.29713,-0.0627 0.0947,-0.0394 0.18203,-0.0947 0.25797,-0.16351 0.0725,-0.0728 0.12964,-0.15901 0.1688,-0.254 0.0389,-0.095 0.0585,-0.19658 0.0579,-0.29924 0.003,-0.10213 -0.0188,-0.20347 -0.0627,-0.29607 -0.0394,-0.0942 -0.095,-0.18124 -0.16404,-0.25691 -0.10981,-0.10822 -0.24951,-0.18124 -0.40111,-0.21061 -0.15161,-0.0291 -0.30851,-0.0127 -0.45085,0.0468 -0.096,0.0373 -0.18362,0.0929 -0.25797,0.16378 z m -9.6075,0.55298 v 6.23252 c 0,0.20664 0.0824,0.40482 0.22895,0.55087 0.1466,0.14605 0.34544,0.22807 0.55276,0.22807 h 3.1269 c 0.20746,0 0.40616,-0.082 0.55274,-0.22807 0.14658,-0.14605 0.22887,-0.34423 0.22887,-0.55087 v -6.23252 c 0,-0.20664 -0.0823,-0.40455 -0.22887,-0.55086 -0.14658,-0.14605 -0.34528,-0.22808 -0.55274,-0.22808 h -3.1269 c -0.20732,0 -0.40616,0.082 -0.55276,0.22808 -0.14658,0.14631 -0.22895,0.34422 -0.22895,0.55086 z m 3.1269,0.7792 v 4.67413 h -1.56345 v -4.67413 z m -6.2538,-2.33733 v 9.34878 c 0,0.61992 0.24707,1.21418 0.68689,1.65259 0.43981,0.43842 1.03632,0.68448 1.65827,0.68448 h 12.50749 c 0.62204,0 1.21867,-0.24606 1.65841,-0.68448 0.43974,-0.43841 0.68686,-1.03267 0.68686,-1.65259 v -9.34878 c 0,-0.61966 -0.24712,-1.21418 -0.68686,-1.65259 -0.43974,-0.43815 -1.03637,-0.68448 -1.65841,-0.68448 h -12.50749 c -0.62195,0 -1.21846,0.24633 -1.65827,0.68448 -0.43982,0.43841 -0.68689,1.03293 -0.68689,1.65259 z m 14.85265,-0.77894 c 0.20744,0 0.40614,0.082 0.55298,0.22807 0.14658,0.14632 0.22887,0.34449 0.22887,0.55087 v 9.34878 c 0,0.20664 -0.0823,0.40482 -0.22887,0.55087 -0.14684,0.14605 -0.34554,0.22807 -0.55298,0.22807 h -12.50749 c -0.20732,0 -0.40616,-0.082 -0.55274,-0.22807 -0.1466,-0.14605 -0.22897,-0.34423 -0.22897,-0.55087 v -9.34878 c 0,-0.20638 0.0824,-0.40455 0.22897,-0.55087 0.14658,-0.14605 0.34542,-0.22807 0.55274,-0.22807 z m -5.33902,1.90871 c -0.031,0.0397 -0.0548,0.0847 -0.0704,0.13229 -0.0238,0.0466 -0.0397,0.0966 -0.0468,0.14817 -0.0236,0.10001 -0.0236,0.20399 0,0.30374 l 0.0468,0.14023 0.0704,0.14023 0.0937,0.11694 c 0.15002,0.14235 0.34819,0.22305 0.55509,0.22596 0.12806,-8e-4 0.254,-0.0325 0.36672,-0.0931 0.11271,-0.0606 0.20875,-0.14763 0.27993,-0.25373 0.0709,-0.10637 0.11483,-0.22807 0.12726,-0.35507 0.0127,-0.127 -0.006,-0.25506 -0.0548,-0.37333 -0.0394,-0.0942 -0.095,-0.18124 -0.16404,-0.25691 -0.073,-0.0722 -0.15981,-0.12938 -0.25506,-0.16801 -0.0953,-0.0389 -0.19711,-0.0585 -0.30004,-0.058 -0.2069,0.003 -0.40507,0.0836 -0.55509,0.22596 z"
       fill="#ff3343"
       id="path12"
       style="stroke-width:0.264583" />
    <path
       d="m 126.642,136.01769 c -0.0416,0.0423 -0.0744,0.0923 -0.0966,0.14738 -0.0222,0.0548 -0.0333,0.1135 -0.0328,0.17277 l 0.0366,2.70007 c 0.001,0.0593 0.0138,0.11774 0.0375,0.17198 0.0237,0.0545 0.0579,0.10345 0.10057,0.14446 0.0422,0.0418 0.0923,0.0746 0.14722,0.0968 0.0549,0.0222 0.11371,0.0333 0.17298,0.0328 l 1.80208,-0.0246 6.96002,-0.0945 c 0.0593,-8e-4 0.11774,-0.0138 0.17198,-0.0373 0.0542,-0.0238 0.10345,-0.0579 0.14446,-0.10054 l 1.33165,-1.36842 c 0.0833,-0.0855 0.12938,-0.20056 0.12779,-0.32015 -0.002,-0.11933 -0.0508,-0.23336 -0.13626,-0.31644 l -1.36842,-1.33165 c -0.0426,-0.0466 -0.0947,-0.0833 -0.15267,-0.10848 -0.0579,-0.0249 -0.12038,-0.0376 -0.18362,-0.0368 l -6.94057,0.11325 -1.78959,0.005 c -0.0599,0.002 -0.11893,0.0151 -0.17465,0.0373 -0.0282,0.0228 -0.0534,0.0487 -0.0754,0.0775 -0.0161,0.0135 -0.0309,0.0286 -0.044,0.045 z m 8.90291,0.64691 0.91334,0.88874 -0.88873,0.91334 -6.32328,0.0857 -0.0245,-1.80207 z m -7.22096,0.0979 0.0244,1.80207 -0.90109,0.009 -0.0243,-1.79573 z"
       fill="#ff3343"
       id="path14"
       style="stroke-width:0.264583" />
  </g>
</svg>
