<?xml version="1.0" encoding="UTF-8" standalone="no"?>
<!-- Created with Inkscape (http://www.inkscape.org/) -->

<svg
   width="12.96458mm"
   height="16.13958mm"
   viewBox="0 0 12.96458 16.13958"
   version="1.1"
   id="svg2885"
   inkscape:version="1.2.1 (9c6d41e410, 2022-07-14)"
   sodipodi:docname="icon-2.svg"
   xmlns:inkscape="http://www.inkscape.org/namespaces/inkscape"
   xmlns:sodipodi="http://sodipodi.sourceforge.net/DTD/sodipodi-0.dtd"
   xmlns="http://www.w3.org/2000/svg"
   xmlns:svg="http://www.w3.org/2000/svg">
  <sodipodi:namedview
     id="namedview2887"
     pagecolor="#ffffff"
     bordercolor="#666666"
     borderopacity="1.0"
     inkscape:showpageshadow="2"
     inkscape:pageopacity="0.0"
     inkscape:pagecheckerboard="0"
     inkscape:deskcolor="#d1d1d1"
     inkscape:document-units="mm"
     showgrid="false"
     inkscape:zoom="0.70733726"
     inkscape:cx="-182.37411"
     inkscape:cy="57.963863"
     inkscape:window-width="1920"
     inkscape:window-height="1030"
     inkscape:window-x="0"
     inkscape:window-y="0"
     inkscape:window-maximized="1"
     inkscape:current-layer="layer1" />
  <defs
     id="defs2882" />
  <g
     inkscape:label="Layer 1"
     inkscape:groupmode="layer"
     id="layer1"
     transform="translate(-153.23937,-133.32316)">
    <path
       d="m 160.53182,143.00691 h -3.24115 c -0.21484,0 -0.42095,0.0849 -0.57282,0.23627 -0.15187,0.15134 -0.23733,0.35666 -0.23733,0.5707 0,0.21405 0.0855,0.41937 0.23733,0.57071 0.15187,0.15134 0.35798,0.23627 0.57282,0.23627 h 3.24115 c 0.2151,0 0.42121,-0.0849 0.57308,-0.23627 0.15187,-0.15134 0.23733,-0.35666 0.23733,-0.57071 0,-0.21404 -0.0855,-0.41936 -0.23733,-0.5707 -0.15187,-0.15134 -0.35798,-0.23627 -0.57308,-0.23627 z m 3.24114,-8.0698 h -0.95594 c -0.16721,-0.47095 -0.47651,-0.87868 -0.88556,-1.16787 -0.40931,-0.28892 -0.89799,-0.44476 -1.39964,-0.44608 h -1.62031 c -0.50165,0.001 -0.99034,0.15716 -1.39965,0.44608 -0.40904,0.28919 -0.71834,0.69692 -0.88556,1.16787 h -0.95594 c -0.64479,0 -1.26312,0.25506 -1.719,0.70909 -0.45587,0.45402 -0.71199,1.06971 -0.71199,1.71185 v 9.68375 c 0,0.64214 0.25612,1.25783 0.71199,1.71186 0.45588,0.45402 1.07421,0.70908 1.719,0.70908 h 8.1026 c 0.64479,0 1.26312,-0.25506 1.719,-0.70908 0.45588,-0.45403 0.71199,-1.06972 0.71199,-1.71186 v -9.68375 c 0,-0.64214 -0.25611,-1.25783 -0.71199,-1.71185 -0.45588,-0.45403 -1.07421,-0.70909 -1.719,-0.70909 z m -5.67187,0.80698 c 0,-0.21405 0.0855,-0.41936 0.23733,-0.5707 0.15187,-0.15135 0.35798,-0.23628 0.57309,-0.23628 h 1.62031 c 0.2151,0 0.42121,0.0849 0.57308,0.23628 0.15187,0.15134 0.23733,0.35665 0.23733,0.5707 v 0.80698 h -3.24114 z m 6.48229,11.29771 c 0,0.21405 -0.0855,0.41937 -0.23733,0.57071 -0.15187,0.15134 -0.35798,0.23627 -0.57309,0.23627 h -8.1026 c -0.2151,0 -0.42121,-0.0849 -0.57309,-0.23627 -0.15187,-0.15134 -0.23733,-0.35666 -0.23733,-0.57071 v -9.68375 c 0,-0.21405 0.0855,-0.41936 0.23733,-0.57071 0.15188,-0.15134 0.35799,-0.23627 0.57309,-0.23627 h 0.81016 v 0.80698 c 0,0.21405 0.0855,0.41937 0.23733,0.57071 0.15187,0.15134 0.35798,0.23627 0.57282,0.23627 h 4.86198 c 0.21485,0 0.42096,-0.0849 0.57283,-0.23627 0.15187,-0.15134 0.23733,-0.35666 0.23733,-0.57071 v -0.80698 h 0.81015 c 0.21511,0 0.42122,0.0849 0.57309,0.23627 0.15187,0.15135 0.23733,0.35666 0.23733,0.57071 z m -2.43073,-7.26281 h -4.86198 c -0.21484,0 -0.42095,0.0849 -0.57282,0.23627 -0.15187,0.15134 -0.23733,0.35666 -0.23733,0.57071 0,0.21405 0.0855,0.41936 0.23733,0.5707 0.15187,0.15135 0.35798,0.23628 0.57282,0.23628 h 4.86198 c 0.21485,0 0.42096,-0.0849 0.57283,-0.23628 0.15187,-0.15134 0.23733,-0.35665 0.23733,-0.5707 0,-0.21405 -0.0855,-0.41937 -0.23733,-0.57071 -0.15187,-0.15134 -0.35798,-0.23627 -0.57283,-0.23627 z"
       fill="#000000"
       id="path16"
       style="stroke-width:0.264583" />
  </g>
</svg>
