<?xml version="1.0" encoding="UTF-8" standalone="no"?>
<!-- Created with Inkscape (http://www.inkscape.org/) -->

<svg
   width="16.696266mm"
   height="16.139612mm"
   viewBox="0 0 16.696266 16.139612"
   version="1.1"
   id="svg4880"
   inkscape:version="1.2.1 (9c6d41e410, 2022-07-14)"
   sodipodi:docname="icon-3.svg"
   xmlns:inkscape="http://www.inkscape.org/namespaces/inkscape"
   xmlns:sodipodi="http://sodipodi.sourceforge.net/DTD/sodipodi-0.dtd"
   xmlns="http://www.w3.org/2000/svg"
   xmlns:svg="http://www.w3.org/2000/svg">
  <sodipodi:namedview
     id="namedview4882"
     pagecolor="#ffffff"
     bordercolor="#666666"
     borderopacity="1.0"
     inkscape:showpageshadow="2"
     inkscape:pageopacity="0.0"
     inkscape:pagecheckerboard="0"
     inkscape:deskcolor="#d1d1d1"
     inkscape:document-units="mm"
     showgrid="false"
     inkscape:zoom="0.70733726"
     inkscape:cx="93.307682"
     inkscape:cy="118.75523"
     inkscape:window-width="1920"
     inkscape:window-height="1030"
     inkscape:window-x="0"
     inkscape:window-y="0"
     inkscape:window-maximized="1"
     inkscape:current-layer="layer1" />
  <defs
     id="defs4877" />
  <g
     inkscape:label="Layer 1"
     inkscape:groupmode="layer"
     id="layer1"
     transform="translate(-80.302997,-117.23875)">
    <path
       d="m 92.274599,120.55031 -3.122348,-3.15013 c -0.05186,-0.0516 -0.113506,-0.0923 -0.181239,-0.12012 -0.068,-0.0278 -0.140494,-0.0418 -0.213784,-0.0413 -0.14605,5.3e-4 -0.286014,0.0585 -0.389466,0.1614 l -7.90284,7.87505 c -0.103716,0.10425 -0.161925,0.24527 -0.161925,0.39238 0,0.14685 0.05821,0.28813 0.161925,0.39238 l 3.149865,3.14986 c 0.05212,0.0516 0.113771,0.0923 0.181504,0.12012 0.06773,0.0278 0.140494,0.0418 0.213783,0.0413 0.145786,-5.3e-4 0.28575,-0.0585 0.389467,-0.1614 l 1.575064,-1.57506 4.72493,-4.72493 1.575064,-1.57507 c 0.103717,-0.10424 0.161925,-0.24526 0.161925,-0.39237 0,-0.14685 -0.05821,-0.28787 -0.161925,-0.39211 z m -1.970087,1.17977 -0.395288,-0.39529 c -0.104246,-0.10345 -0.245269,-0.16166 -0.392377,-0.16166 -0.146844,0 -0.288131,0.0582 -0.392377,0.16166 -0.05212,0.0519 -0.0934,0.11351 -0.121708,0.18124 -0.02831,0.0677 -0.04286,0.1405 -0.04286,0.21405 0,0.0736 0.01455,0.14605 0.04286,0.21405 0.02831,0.0677 0.06958,0.12938 0.121708,0.18098 l 0.395288,0.39528 -0.790311,0.78476 -1.179777,-1.18004 c -0.106627,-0.091 -0.243417,-0.13865 -0.383646,-0.13335 -0.139964,0.006 -0.272785,0.0635 -0.372004,0.16271 -0.09922,0.099 -0.157162,0.23178 -0.162719,0.37201 -0.0053,0.13996 0.04233,0.27702 0.133615,0.38338 l 1.179777,1.17978 -0.79031,0.79031 -0.389467,-0.39503 c -0.104775,-0.10477 -0.247121,-0.16377 -0.395288,-0.16377 -0.148166,0 -0.290248,0.059 -0.395023,0.16377 -0.104775,0.10478 -0.163777,0.24686 -0.163777,0.39503 0,0.14843 0.059,0.29051 0.163777,0.39528 l 0.395023,0.38947 -0.784754,0.79031 -1.185333,-1.17978 c -0.104246,-0.10371 -0.245269,-0.16192 -0.392377,-0.16192 -0.147109,0 -0.288131,0.0582 -0.392377,0.16192 -0.103717,0.10425 -0.161661,0.24527 -0.161661,0.39238 0,0.14685 0.05794,0.28813 0.161661,0.39238 l 1.179777,1.17978 -0.78449,0.79031 -2.365375,-2.36538 7.084748,-7.08475 2.365375,2.36538 z"
       fill="#ff3343"
       id="path18"
       style="stroke-width:0.264583" />
    <path
       d="M 86.424926,133.37836 H 96.44258 c 0.147638,0 0.28919,-0.0587 0.393436,-0.16298 0.10451,-0.10451 0.163248,-0.24606 0.163248,-0.39344 v -10.01791 c 0,-0.14738 -0.05874,-0.28893 -0.163248,-0.39344 -0.104246,-0.10425 -0.245798,-0.16298 -0.393436,-0.16298 h -3.339306 c -0.147373,0 -0.289189,0.0587 -0.393435,0.16298 -0.104246,0.10451 -0.162984,0.24606 -0.162984,0.39344 v 6.12193 h -6.121929 c -0.147637,0 -0.289189,0.0587 -0.393435,0.16298 -0.104511,0.10451 -0.162983,0.24606 -0.162983,0.3937 v 3.3393 c 0,0.14738 0.05847,0.28893 0.162983,0.39344 0.104246,0.10425 0.245798,0.16298 0.393435,0.16298 z m 0.556419,-3.3393 h 1.113102 v 0.55668 c 0,0.14764 0.05874,0.28919 0.162983,0.39344 0.104511,0.10451 0.246063,0.16298 0.3937,0.16298 0.147638,0 0.28919,-0.0585 0.393436,-0.16298 0.10451,-0.10425 0.162983,-0.2458 0.162983,-0.39344 v -0.55668 h 1.113102 v 0.55668 c 0,0.14764 0.05874,0.28919 0.162984,0.39344 0.10451,0.10451 0.246062,0.16298 0.3937,0.16298 0.147372,0 0.288925,-0.0585 0.393435,-0.16298 0.104246,-0.10425 0.162983,-0.2458 0.162983,-0.39344 v -0.55668 h 1.113102 v 0.55668 c 0,0.14764 0.05874,0.28919 0.162984,0.39344 0.104246,0.10451 0.246062,0.16298 0.393435,0.16298 0.147638,0 0.28919,-0.0585 0.3937,-0.16298 0.104246,-0.10425 0.162983,-0.2458 0.162983,-0.39344 v -0.55668 h 0.556419 c 0.147638,0 0.28919,-0.0585 0.3937,-0.16299 0.104246,-0.10424 0.162984,-0.24579 0.162984,-0.39343 0,-0.14764 -0.05874,-0.28919 -0.162984,-0.3937 -0.10451,-0.10425 -0.246062,-0.16298 -0.3937,-0.16298 h -0.556419 v -1.11284 h 0.556419 c 0.147638,0 0.28919,-0.0587 0.3937,-0.16325 0.104246,-0.10425 0.162984,-0.2458 0.162984,-0.39344 0,-0.14763 -0.05874,-0.28919 -0.162984,-0.39343 -0.10451,-0.10451 -0.246062,-0.16298 -0.3937,-0.16298 h -0.556419 v -1.11311 h 0.556419 c 0.147638,0 0.28919,-0.0587 0.3937,-0.16298 0.104246,-0.10451 0.162984,-0.24606 0.162984,-0.3937 0,-0.14764 -0.05874,-0.28919 -0.162984,-0.39344 -0.10451,-0.10451 -0.246062,-0.16298 -0.3937,-0.16298 h -0.556419 v -1.1131 h 2.226205 v 8.90455 h -8.904817 z"
       fill="#ff3343"
       id="path20"
       style="stroke-width:0.264583" />
  </g>
</svg>
