<?xml version="1.0" encoding="UTF-8" standalone="no"?>
<!-- Created with Inkscape (http://www.inkscape.org/) -->

<svg
   width="5.8208299mm"
   height="4.7623005mm"
   viewBox="0 0 5.8208299 4.7623005"
   version="1.1"
   id="svg12685"
   inkscape:version="1.2.1 (9c6d41e410, 2022-07-14)"
   sodipodi:docname="twitter.svg"
   xmlns:inkscape="http://www.inkscape.org/namespaces/inkscape"
   xmlns:sodipodi="http://sodipodi.sourceforge.net/DTD/sodipodi-0.dtd"
   xmlns="http://www.w3.org/2000/svg"
   xmlns:svg="http://www.w3.org/2000/svg">
  <sodipodi:namedview
     id="namedview12687"
     pagecolor="#ffffff"
     bordercolor="#666666"
     borderopacity="1.0"
     inkscape:showpageshadow="2"
     inkscape:pageopacity="0.0"
     inkscape:pagecheckerboard="0"
     inkscape:deskcolor="#d1d1d1"
     inkscape:document-units="mm"
     showgrid="false"
     inkscape:zoom="0.70733726"
     inkscape:cx="-169.65033"
     inkscape:cy="42.412583"
     inkscape:window-width="1920"
     inkscape:window-height="1030"
     inkscape:window-x="0"
     inkscape:window-y="0"
     inkscape:window-maximized="1"
     inkscape:current-layer="layer1" />
  <defs
     id="defs12682" />
  <g
     inkscape:label="Layer 1"
     inkscape:groupmode="layer"
     id="layer1"
     transform="translate(-150.07829,-137.14151)">
    <path
       d="m 155.89908,137.71214 c -0.21881,0.0952 -0.45005,0.15822 -0.68686,0.18706 0.24977,-0.15002 0.43683,-0.38576 0.52679,-0.6641 -0.23469,0.14049 -0.4916,0.23944 -0.75962,0.29263 -0.17912,-0.19527 -0.41778,-0.32518 -0.67813,-0.36936 -0.26061,-0.0444 -0.52837,-5.3e-4 -0.76147,0.12462 -0.2331,0.12514 -0.41804,0.32437 -0.52625,0.56673 -0.10822,0.24236 -0.13335,0.51382 -0.0714,0.77206 -0.47466,-0.0241 -0.93874,-0.14843 -1.36234,-0.3646 -0.42386,-0.21616 -0.79746,-0.51964 -1.09696,-0.89032 -0.10504,0.18441 -0.16034,0.39317 -0.16008,0.60537 -2.6e-4,0.19737 0.0479,0.39158 0.14023,0.56567 0.0923,0.1741 0.22622,0.32253 0.38947,0.4318 -0.18971,-0.005 -0.37544,-0.0563 -0.54134,-0.14896 v 0.0146 c 0.001,0.27649 0.0979,0.54371 0.27279,0.75697 0.17489,0.21325 0.41804,0.35904 0.68765,0.41301 -0.10372,0.0317 -0.21167,0.0484 -0.32015,0.0497 -0.0751,-8e-4 -0.15002,-0.008 -0.2241,-0.0204 0.0767,0.2376 0.22543,0.44556 0.42519,0.59426 0.19976,0.14896 0.44079,0.23151 0.6895,0.23653 -0.41989,0.33206 -0.93848,0.5133 -1.47267,0.51462 -0.0974,5.3e-4 -0.19447,-0.006 -0.29104,-0.0175 0.54557,0.35401 1.18136,0.54186 1.83065,0.54107 0.4482,0.005 0.8927,-0.0804 1.30757,-0.2503 0.41513,-0.16986 0.79243,-0.42121 1.10966,-0.73924 0.31724,-0.3183 0.56833,-0.69665 0.73846,-1.11337 0.17012,-0.41672 0.25585,-0.86307 0.25241,-1.31366 0,-0.0497 0,-0.10239 0,-0.15504 0.22833,-0.17119 0.42545,-0.381 0.58208,-0.61992 z"
       fill="#fff"
       id="path8"
       style="stroke-width:0.264583" />
  </g>
</svg>
