<?xml version="1.0" encoding="UTF-8" standalone="no"?>
<!-- Created with Inkscape (http://www.inkscape.org/) -->

<svg
   width="6.8791404mm"
   height="4.7623348mm"
   viewBox="0 0 6.8791404 4.7623348"
   version="1.1"
   id="svg14677"
   inkscape:version="1.2.1 (9c6d41e410, 2022-07-14)"
   sodipodi:docname="yt.svg"
   xmlns:inkscape="http://www.inkscape.org/namespaces/inkscape"
   xmlns:sodipodi="http://sodipodi.sourceforge.net/DTD/sodipodi-0.dtd"
   xmlns="http://www.w3.org/2000/svg"
   xmlns:svg="http://www.w3.org/2000/svg">
  <sodipodi:namedview
     id="namedview14679"
     pagecolor="#ffffff"
     bordercolor="#666666"
     borderopacity="1.0"
     inkscape:showpageshadow="2"
     inkscape:pageopacity="0.0"
     inkscape:pagecheckerboard="0"
     inkscape:deskcolor="#d1d1d1"
     inkscape:document-units="mm"
     showgrid="false"
     inkscape:zoom="0.70733726"
     inkscape:cx="-210.64916"
     inkscape:cy="-5.655011"
     inkscape:window-width="1920"
     inkscape:window-height="1030"
     inkscape:window-x="0"
     inkscape:window-y="0"
     inkscape:window-maximized="1"
     inkscape:current-layer="layer1" />
  <defs
     id="defs14674" />
  <g
     inkscape:label="Layer 1"
     inkscape:groupmode="layer"
     id="layer1"
     transform="translate(-160.77076,-149.85943)">
    <path
       d="m 167.64833,151.5378 c 0.0154,-0.44079 -0.0823,-0.87815 -0.28442,-1.27159 -0.13706,-0.16139 -0.32729,-0.2704 -0.53737,-0.30797 -0.86969,-0.0775 -1.74255,-0.10954 -2.61567,-0.0952 -0.86969,-0.0148 -1.73964,0.0159 -2.60615,0.0923 -0.17118,0.0307 -0.32993,0.1098 -0.45614,0.2278 -0.28125,0.25559 -0.31247,0.69268 -0.34369,1.06204 -0.0455,0.66437 -0.0455,1.33086 0,1.99522 0.009,0.20797 0.0402,0.41434 0.0937,0.61569 0.0376,0.15558 0.11377,0.29924 0.22172,0.41857 0.12726,0.12436 0.28972,0.20796 0.46567,0.24024 0.67363,0.082 1.35255,0.11589 2.0312,0.1016 1.09379,0.0154 2.05317,0 3.18744,-0.0863 0.18044,-0.0302 0.3474,-0.11404 0.4781,-0.23998 0.0876,-0.0862 0.15293,-0.19182 0.19076,-0.30797 0.11166,-0.33788 0.16643,-0.69136 0.16246,-1.0467 0.0124,-0.1725 0.0124,-1.21311 0.0124,-1.39779 z m -4.14364,1.58247 v -1.90579 l 1.84997,0.95753 c -0.51885,0.2831 -1.20306,0.60351 -1.84997,0.94826 z"
       fill="#fff"
       id="path10"
       style="stroke-width:0.264583" />
  </g>
</svg>
